<?xml version="1.0" encoding="UTF-8" standalone="no"?>
<!-- Created with Inkscape (http://www.inkscape.org/) -->

<svg
   xmlns:dc="http://purl.org/dc/elements/1.1/"
   xmlns:cc="http://creativecommons.org/ns#"
   xmlns:rdf="http://www.w3.org/1999/02/22-rdf-syntax-ns#"
   xmlns:svg="http://www.w3.org/2000/svg"
   xmlns="http://www.w3.org/2000/svg"
   xmlns:sodipodi="http://sodipodi.sourceforge.net/DTD/sodipodi-0.dtd"
   xmlns:inkscape="http://www.inkscape.org/namespaces/inkscape"
   width="1440"
   height="1080"
   viewBox="0 0 380.99999 285.75"
   version="1.1"
   id="svg8"
   inkscape:version="0.92.2 5c3e80d, 2017-08-06"
   sodipodi:docname="thanks.svg"
   inkscape:export-filename="/Users/pincy/Fabrica/NEST/minimalist_segregation/video/title.png"
   inkscape:export-xdpi="96"
   inkscape:export-ydpi="96">
  <defs
     id="defs2">
    <clipPath
       id="clip1">
      <path
         id="path173"
         d="M 0 0.972656 L 98 0.972656 L 98 98 L 0 98 Z M 0 0.972656 " />
    </clipPath>
    <clipPath
       id="clip2">
      <path
         id="path176"
         d="M 267 13 L 300.054688 13 L 300.054688 86 L 267 86 Z M 267 13 " />
    </clipPath>
  </defs>
  <sodipodi:namedview
     id="base"
     pagecolor="#ffffff"
     bordercolor="#666666"
     borderopacity="1.0"
     inkscape:pageopacity="1"
     inkscape:pageshadow="2"
     inkscape:zoom="0.46851852"
     inkscape:cx="720"
     inkscape:cy="540"
     inkscape:document-units="mm"
     inkscape:current-layer="layer1"
     showgrid="false"
     units="px"
     inkscape:showpageshadow="false"
     inkscape:window-width="1280"
     inkscape:window-height="719"
     inkscape:window-x="0"
     inkscape:window-y="1"
     inkscape:window-maximized="1"
     showguides="true"
     inkscape:guide-bbox="true">
    <sodipodi:guide
       position="5.2916717,280.45832"
       orientation="1040,0"
       id="guide448"
       inkscape:locked="false" />
    <sodipodi:guide
       position="5.2916717,5.2916669"
       orientation="0,1399.9999"
       id="guide450"
       inkscape:locked="false" />
    <sodipodi:guide
       position="375.70831,5.2916669"
       orientation="-1040,0"
       id="guide452"
       inkscape:locked="false" />
    <sodipodi:guide
       position="375.70831,280.45832"
       orientation="0,-1399.9999"
       id="guide454"
       inkscape:locked="false" />
  </sodipodi:namedview>
  <metadata
     id="metadata5">
    <rdf:RDF>
      <cc:Work
         rdf:about="">
        <dc:format>image/svg+xml</dc:format>
        <dc:type
           rdf:resource="http://purl.org/dc/dcmitype/StillImage" />
        <dc:title></dc:title>
      </cc:Work>
    </rdf:RDF>
  </metadata>
  <g
     inkscape:label="Layer 1"
     inkscape:groupmode="layer"
     id="layer1"
     transform="translate(0,-11.24998)">
    <g
       transform="matrix(0.14648437,0,0,0.14648437,-4.8670858,238.90493)"
       style="display:inline"
       id="layer1-9"
       inkscape:label="Layer 1">
      <path
         inkscape:connector-curvature="0"
         id="background"
         d="m 69.350454,140.10607 v 53.095 114.17503 53.095 h 60.963446 844.88173 57.03417 0.1572 60.9635 v -53.095 -114.17503 c 0,-29.41463 -27.1898,-53.095 -60.9635,-53.095 H 975.19572 130.31398 69.350539 Z"
         style="fill:#0071a9;fill-opacity:1;stroke:none;stroke-width:2;stroke-miterlimit:4;stroke-dasharray:none;stroke-opacity:1" />
      <g
         transform="matrix(1.9686349,0,0,1.9686349,-67.175269,-349.1766)"
         id="pictext">
        <g
           id="nesttext"
           transform="matrix(1,0,0,0.9008003,5.1461148,34.561482)">
          <text
             id="nestlab"
             y="320.93365"
             x="177.14285"
             style="font-style:normal;font-weight:normal;line-height:0%;font-family:sans-serif;letter-spacing:0px;word-spacing:0px;fill:#ffffff;fill-opacity:1;stroke:none;stroke-width:1px;stroke-linecap:butt;stroke-linejoin:miter;stroke-opacity:1"
             xml:space="preserve"><tspan
               style="font-style:normal;font-variant:normal;font-weight:bold;font-stretch:normal;font-size:80px;line-height:125%;font-family:'Hiragino Maru Gothic Pro';-inkscape-font-specification:'Hiragino Maru Gothic Pro, Normal';text-align:start;writing-mode:lr-tb;text-anchor:start;fill:#ffffff"
               id="tspan3340"
               y="320.93365"
               x="177.14285"
               sodipodi:role="line">NEST Lab</tspan></text>
          <text
             id="nestfull"
             y="341.89832"
             x="182.49751"
             style="font-style:normal;font-weight:normal;line-height:0%;font-family:sans-serif;letter-spacing:0px;word-spacing:0px;fill:#ffffff;fill-opacity:1;stroke:none;stroke-width:1px;stroke-linecap:butt;stroke-linejoin:miter;stroke-opacity:1"
             xml:space="preserve"><tspan
               style="font-style:normal;font-variant:normal;font-weight:normal;font-stretch:normal;font-size:18.45367241px;line-height:125%;font-family:'Hiragino Maru Gothic Pro';-inkscape-font-specification:'Hiragino Maru Gothic Pro, Normal';text-align:start;writing-mode:lr-tb;text-anchor:start;fill:#ffffff"
               y="341.89832"
               x="182.49751"
               id="tspan3346"
               sodipodi:role="line">Novel Engineering for Swarm Technologies </tspan></text>
        </g>
        <g
           id="g4438"
           transform="translate(-10.038775,-3.7419891)">
          <rect
             inkscape:tile-y0="140.30014"
             inkscape:tile-x0="124.03089"
             inkscape:tile-h="20"
             inkscape:tile-w="20"
             inkscape:tile-cy="150.30014"
             inkscape:tile-cx="134.03089"
             y="270.12994"
             x="95.131882"
             height="20"
             width="20"
             id="elem1"
             style="fill:#ffffff;fill-opacity:1;stroke:none;stroke-width:2;stroke-miterlimit:4;stroke-dasharray:none;stroke-opacity:1" />
          <rect
             style="fill:#ffffff;fill-opacity:1;stroke:none;stroke-width:2;stroke-miterlimit:4;stroke-dasharray:none;stroke-opacity:1"
             id="elem2"
             width="20"
             height="20"
             x="125.132"
             y="270.12994"
             inkscape:tile-cx="134.03089"
             inkscape:tile-cy="150.30014"
             inkscape:tile-w="20"
             inkscape:tile-h="20"
             inkscape:tile-x0="124.03089"
             inkscape:tile-y0="140.30014" />
          <rect
             transform="rotate(-31.861888)"
             inkscape:tile-y0="140.30014"
             inkscape:tile-x0="124.03089"
             inkscape:tile-h="20"
             inkscape:tile-w="20"
             inkscape:tile-cy="150.30014"
             inkscape:tile-cx="134.03089"
             y="315.0896"
             x="-17.622768"
             height="20"
             width="20"
             id="elem3"
             style="fill:#ff9955;fill-opacity:1;stroke:none;stroke-width:2;stroke-miterlimit:4;stroke-dasharray:none;stroke-opacity:1" />
          <rect
             style="fill:#ffffff;fill-opacity:1;stroke:none;stroke-width:2;stroke-miterlimit:4;stroke-dasharray:none;stroke-opacity:1"
             id="elem4"
             width="19.999969"
             height="20"
             x="95.131882"
             y="300.13022"
             inkscape:tile-cx="134.03089"
             inkscape:tile-cy="150.30014"
             inkscape:tile-w="20"
             inkscape:tile-h="20"
             inkscape:tile-x0="124.03089"
             inkscape:tile-y0="140.30014" />
          <rect
             inkscape:tile-y0="140.30014"
             inkscape:tile-x0="124.03089"
             inkscape:tile-h="20"
             inkscape:tile-w="20"
             inkscape:tile-cy="150.30014"
             inkscape:tile-cx="134.03089"
             y="300.13022"
             x="125.13196"
             height="20"
             width="19.999969"
             id="elem5"
             style="fill:#ffffff;fill-opacity:1;stroke:none;stroke-width:2;stroke-miterlimit:4;stroke-dasharray:none;stroke-opacity:1" />
          <rect
             style="fill:#ffffff;fill-opacity:1;stroke:none;stroke-width:2;stroke-miterlimit:4;stroke-dasharray:none;stroke-opacity:1"
             id="elem6"
             width="19.999969"
             height="20"
             x="155.13191"
             y="300.13022"
             inkscape:tile-cx="134.03089"
             inkscape:tile-cy="150.30014"
             inkscape:tile-w="20"
             inkscape:tile-h="20"
             inkscape:tile-x0="124.03089"
             inkscape:tile-y0="140.30014" />
          <rect
             inkscape:tile-y0="140.30014"
             inkscape:tile-x0="124.03089"
             inkscape:tile-h="20"
             inkscape:tile-w="20"
             inkscape:tile-cy="150.30014"
             inkscape:tile-cx="134.03089"
             y="330.13022"
             x="95.131882"
             height="20"
             width="19.999969"
             id="elem7"
             style="fill:#ffffff;fill-opacity:1;stroke:none;stroke-width:2;stroke-miterlimit:4;stroke-dasharray:none;stroke-opacity:1" />
          <rect
             style="fill:#ffffff;fill-opacity:1;stroke:none;stroke-width:2;stroke-miterlimit:4;stroke-dasharray:none;stroke-opacity:1"
             id="elem8"
             width="19.999969"
             height="20"
             x="125.13196"
             y="330.13022"
             inkscape:tile-cx="134.03089"
             inkscape:tile-cy="150.30014"
             inkscape:tile-w="20"
             inkscape:tile-h="20"
             inkscape:tile-x0="124.03089"
             inkscape:tile-y0="140.30014" />
          <rect
             inkscape:tile-y0="140.30014"
             inkscape:tile-x0="124.03089"
             inkscape:tile-h="20"
             inkscape:tile-w="20"
             inkscape:tile-cy="150.30014"
             inkscape:tile-cx="134.03089"
             y="330.13022"
             x="155.13191"
             height="20"
             width="19.999969"
             id="elem9"
             style="fill:#ffffff;fill-opacity:1;stroke:none;stroke-width:2;stroke-miterlimit:4;stroke-dasharray:none;stroke-opacity:1" />
        </g>
      </g>
    </g>
    <g
       id="surface29497"
       transform="matrix(0.35277779,0,0,0.35277779,269.85569,257.13606)">
      <g
         id="g183"
         clip-path="url(#clip1)"
         style="clip-rule:nonzero">
        <path
           id="path181"
           d="M 48.519531,0.972656 C 21.765625,0.972656 0,22.738281 0,49.488281 0,76.238281 21.765625,98 48.519531,98 c 26.75,0 48.511719,-21.761719 48.511719,-48.511719 0,-26.75 -21.761719,-48.515625 -48.511719,-48.515625"
           style="fill:#b3b5b5;fill-opacity:1;fill-rule:nonzero;stroke:none"
           inkscape:connector-curvature="0" />
      </g>
      <path
         id="path185"
         d="m 72.179688,41.53125 c 0,-1.453125 -0.08984,-2.886719 -0.222657,-4.308594 -0.351562,0.34375 -1.488281,1.246094 -3.738281,1.246094 H 54.921875 c -5.558594,0 -6.539063,1.9375 -6.539063,1.9375 0,0 -0.980468,-1.9375 -6.539062,-1.9375 H 28.546875 c -2.25,0 -3.386719,-0.902344 -3.738281,-1.246094 -0.132813,1.421875 -0.222656,2.855469 -0.222656,4.308594 0,3.625 0.425781,7.148438 1.214843,10.535156 H 70.964844 C 71.75,48.679688 72.179688,45.15625 72.179688,41.53125"
         style="fill:#c20f2e;fill-opacity:1;fill-rule:nonzero;stroke:none"
         inkscape:connector-curvature="0" />
      <path
         id="path187"
         d="M 48.382812,82.117188 C 59.328125,75.921875 67.523438,65.511719 70.714844,53.109375 H 26.050781 c 3.191407,12.402344 11.386719,22.8125 22.332031,29.007813"
         style="fill:#c20f2e;fill-opacity:1;fill-rule:nonzero;stroke:none"
         inkscape:connector-curvature="0" />
      <g
         id="g191"
         clip-path="url(#clip2)"
         style="clip-rule:nonzero">
        <path
           id="path189"
           d="m 299.62109,17.574219 0.4336,-0.04297 v -4.410156 h -32.27344 v 4.410156 l 0.4375,0.04297 c 8.0625,0.730469 8.94531,1.117187 8.94531,10.214843 v 42.550782 c 0,9.09375 -0.88281,9.480468 -8.94531,10.210937 l -0.4375,0.04297 v 4.410156 h 32.27344 V 80.59375 l -0.4336,-0.04297 c -8.08984,-0.730469 -8.83984,-1.066406 -8.83984,-10.210937 V 27.789062 c 0,-9.152343 0.75,-9.480468 8.83984,-10.214843"
           style="fill:#c20f2e;fill-opacity:1;fill-rule:nonzero;stroke:none"
           inkscape:connector-curvature="0" />
      </g>
      <path
         id="path193"
         d="m 236.83984,51.203125 c -2.82422,0 -5.02343,-0.53125 -6.17578,-1.03125 V 22.769531 c 0,-2.019531 0.27735,-3.117187 0.94922,-3.699219 0.51172,-0.511718 1.95313,-1.058593 4.46484,-1.058593 8.85157,0 14.13672,6.019531 14.13672,16.105469 0,16.261718 -11.14062,17.085937 -13.375,17.085937 z m 20.24219,-33.738281 c -4.23047,-2.960938 -10.31641,-4.34375 -19.15234,-4.34375 h -54.37891 v 4.40625 c 4.60938,0.222656 8.23438,2.507812 8.23438,5.300781 0,0.246094 -0.0234,0.5 -0.0781,0.734375 -0.11719,0.71875 -0.28516,1.546875 -0.50391,2.476562 -1.52343,6.394532 -6.33593,24.375 -10.6914,38.226563 L 162.22266,13.886719 h -5.27735 L 140.83594,63.976562 128.79687,22.867188 c 0,0 -1.7539,-4.730469 7.26954,-5.347657 v -4.398437 h -31.17969 v 4.390625 c 0,0 7.40234,-0.242188 9.5625,6.175781 l 19.14453,62.515625 h 5.61719 L 155.78906,36.242188 173.875,86.203125 h 5.60547 c 9.44922,-31.878906 15.85937,-51.265625 18.09765,-57.5 1.42579,-4.226563 2.46094,-6.710937 3.96094,-8.273437 1.625,-1.679688 4.03906,-2.746094 6.73828,-2.746094 4.90625,0 8.87891,3.089844 8.87891,6.996094 v 45.660156 c 0,9.09375 -0.88281,9.480468 -8.94531,10.210937 l -0.4375,0.04297 v 4.410156 h 33.36328 v -4.414062 l -0.44141,-0.03906 c -9.17969,-0.734379 -10.03125,-1.06641 -10.03125,-10.210941 V 56.359375 c 0.80469,0.15625 1.60938,0.289063 2.41016,0.382813 1.66015,0.222656 3.44531,0.222656 4.74609,0.222656 1.30469,0 3.08594,0 4.7461,-0.222656 10.86328,-1.269532 22.46875,-7.960938 22.46875,-22.953126 0,-6.992187 -2.67579,-12.484374 -7.95313,-16.324218"
         style="fill:#c20f2e;fill-opacity:1;fill-rule:nonzero;stroke:none"
         inkscape:connector-curvature="0" />
      <path
         id="path195"
         d="m 48.347656,15.386719 c -18.828125,0 -34.148437,15.316406 -34.148437,34.140625 0,18.824218 15.320312,34.140625 34.148437,34.140625 18.824219,0 34.136719,-15.316407 34.136719,-34.140625 0,-18.824219 -15.3125,-34.140625 -34.136719,-34.140625 M 48.519531,3.285156 c 25.515625,0 46.199219,20.6875 46.199219,46.203125 0,25.519531 -20.683594,46.203125 -46.199219,46.203125 C 23,95.691406 2.3125,75.007812 2.3125,49.488281 2.3125,23.972656 23,3.285156 48.519531,3.285156"
         style="fill:#c20f2e;fill-opacity:1;fill-rule:nonzero;stroke:none"
         inkscape:connector-curvature="0" />
      <path
         id="path197"
         d="m 27.683594,15.234375 c 0.621094,1.117187 1.578125,1.605469 2.4375,1.132813 0.867187,-0.484376 0.902344,-1.585938 0.292968,-2.6875 -0.574218,-1.023438 -1.539062,-1.632813 -2.421874,-1.140626 -0.875,0.488282 -0.921876,1.589844 -0.308594,2.695313 z m 4.0625,-2.347656 c 1.035156,1.867187 0.539062,3.605469 -1.125,4.535156 -1.675782,0.929687 -3.375,0.210937 -4.277344,-1.410156 -0.945312,-1.699219 -0.558594,-3.578125 1.109375,-4.503907 1.738281,-0.96875 3.414063,-0.195312 4.292969,1.378907"
         style="fill:#fdfdfd;fill-opacity:1;fill-rule:nonzero;stroke:none"
         inkscape:connector-curvature="0" />
      <path
         id="path199"
         d="m 60.230469,14.292969 c -0.28125,0.05469 -0.914063,0.05469 -1.667969,-0.140625 -2.171875,-0.5625 -2.9375,-2.207032 -2.476562,-3.996094 0.554687,-2.140625 2.382812,-2.929688 4.285156,-2.441406 0.734375,0.191406 1.257812,0.476562 1.472656,0.679687 l -0.585938,1.039063 c -0.25,-0.191406 -0.621093,-0.40625 -1.132812,-0.539063 -1.117188,-0.289062 -2.167969,0.164063 -2.527344,1.5625 -0.324218,1.257813 0.214844,2.238281 1.476563,2.5625 0.433593,0.113281 0.921875,0.148438 1.242187,0.105469 l -0.08594,1.167969"
         style="fill:#fdfdfd;fill-opacity:1;fill-rule:nonzero;stroke:none"
         inkscape:connector-curvature="0" />
      <path
         id="path201"
         d="m 79.183594,28.632812 c -0.257813,-0.125 -0.761719,-0.515624 -1.242188,-1.128906 -1.382812,-1.761718 -0.992187,-3.535156 0.460938,-4.679687 1.738281,-1.363281 3.675781,-0.878907 4.886718,0.664062 0.46875,0.597657 0.710938,1.140625 0.757813,1.433594 l -1.097656,0.472656 c -0.07813,-0.304687 -0.246094,-0.699219 -0.570313,-1.117187 -0.714844,-0.910156 -1.824218,-1.183594 -2.957031,-0.292969 -1.023437,0.800781 -1.191406,1.910156 -0.386719,2.933594 0.277344,0.355469 0.640625,0.679687 0.925782,0.835937 l -0.777344,0.878906"
         style="fill:#fdfdfd;fill-opacity:1;fill-rule:nonzero;stroke:none"
         inkscape:connector-curvature="0" />
      <path
         id="path203"
         d="m 22.621094,18.625 -1.207032,-1.492188 c 0.06641,-0.08984 0.210938,-0.226562 0.4375,-0.410156 0.574219,-0.46875 1.117188,-0.449218 1.496094,0.01172 0.414063,0.507813 0.285156,1.117187 -0.320312,1.609375 -0.171875,0.140625 -0.289063,0.222656 -0.40625,0.28125 z m 0.710937,0.871094 c 0.125,-0.0625 0.265625,-0.160156 0.414063,-0.285156 0.671875,-0.542969 1.109375,-1.183594 1.207031,-1.855469 0.08203,-0.523438 -0.105469,-1.078125 -0.507813,-1.574219 -0.402343,-0.492188 -0.949218,-0.742188 -1.484374,-0.730469 -0.554688,0.0039 -1.164063,0.277344 -1.867188,0.84375 -0.695312,0.566407 -1.152344,1.011719 -1.453125,1.355469 l 4.027344,4.992188 c 0.359375,-0.328126 0.730469,-0.644532 1.097656,-0.957032 l -1.433594,-1.789062"
         style="fill:#fdfdfd;fill-opacity:1;fill-rule:nonzero;stroke:none"
         inkscape:connector-curvature="0" />
      <path
         id="path205"
         d="M 38.292969,14.058594 37.855469,12.875 35.429688,13.738281 33.640625,8.710938 C 33.179688,8.878906 32.730469,9.0625 32.28125,9.242188 l 2.195312,6.144531 c 1.238282,-0.511719 2.511719,-0.953125 3.816407,-1.328125"
         style="fill:#ffffff;fill-opacity:1;fill-rule:nonzero;stroke:none"
         inkscape:connector-curvature="0" />
      <path
         id="path207"
         d="m 40.203125,13.5625 c 0.476563,-0.109375 0.949219,-0.207031 1.429687,-0.300781 l -0.550781,-2.609375 1.257813,-4.117188 c -0.519532,0.074219 -1.035156,0.164063 -1.550782,0.253906 l -0.324218,1.722657 c -0.09375,0.492187 -0.167969,0.890625 -0.222656,1.316406 l -0.02344,0.00391 C 39.984375,9.449219 39.769531,9.136719 39.476562,8.71875 l -1.027343,-1.4375 c -0.519531,0.121094 -1.03125,0.25 -1.539063,0.390625 l 2.75,3.328125 0.542969,2.5625"
         style="fill:#ffffff;fill-opacity:1;fill-rule:nonzero;stroke:none"
         inkscape:connector-curvature="0" />
      <path
         id="path209"
         d="m 69.136719,18.910156 1.125,-1.558594 c 0.625,-0.855468 1.144531,-1.605468 1.621093,-2.332031 l 0.02734,0.02344 c -0.199218,0.796875 -0.339844,1.722656 -0.4375,2.511719 l -0.359375,2.796874 c 0.414063,0.324219 0.820313,0.652344 1.214844,0.988282 L 76.18359,16.05469 C 75.839844,15.769531 75.488281,15.5 75.132812,15.226562 l -1.152343,1.5625 c -0.578125,0.792969 -1.070313,1.515626 -1.503907,2.257813 l -0.01562,-0.01172 c 0.191406,-0.761718 0.363281,-1.636718 0.453124,-2.417968 L 73.214844,13.8125 C 72.761719,13.5 72.308594,13.199219 71.847656,12.90625 L 68,18.183594 c 0.382812,0.234375 0.765625,0.472656 1.136719,0.726562"
         style="fill:#ffffff;fill-opacity:1;fill-rule:nonzero;stroke:none"
         inkscape:connector-curvature="0" />
      <path
         id="path211"
         d="m 74.8125,23.640625 4.546875,-4.671875 c -0.34375,-0.347656 -0.695313,-0.6875 -1.050781,-1.019531 l -4.542969,4.671875 c 0.351563,0.335937 0.703125,0.671875 1.046875,1.019531"
         style="fill:#ffffff;fill-opacity:1;fill-rule:nonzero;stroke:none"
         inkscape:connector-curvature="0" />
      <path
         id="path213"
         d="m 54.191406,13.046875 c 0,0 0.0078,0.0039 0.01172,0.0039 L 54.3125,11.835938 c 0,0 -1.511719,-0.195313 -2.648438,-0.300782 l 0.140626,-1.507812 c 0.625,0.05859 1.589843,0.152344 2.378906,0.261718 L 54.289062,9.09375 C 53.453125,8.980469 52.5625,8.882812 51.917969,8.824219 l 0.121093,-1.296875 c 0,0 1.386719,0.117187 2.523438,0.273437 L 54.667969,6.539062 C 53.335938,6.347656 52.011719,6.214844 50.695312,6.148438 l -0.597656,6.503906 c 1.355469,0.05859 2.71875,0.183594 4.09375,0.394531"
         style="fill:#ffffff;fill-opacity:1;fill-rule:nonzero;stroke:none"
         inkscape:connector-curvature="0" />
      <path
         id="path215"
         d="m 43.722656,6.371094 0.06641,1.320312 C 44.37891,7.625 45.074223,7.570312 45.539066,7.53125 l 0.277344,5.195312 c 0.484375,-0.03906 0.972656,-0.07031 1.457032,-0.08594 L 46.996094,7.4375 c 0,0 0.792968,-0.03125 1.761718,-0.023438 l -0.0625,-1.316406 C 47.035156,6.089844 45.375,6.191406 43.722656,6.371094"
         style="fill:#ffffff;fill-opacity:1;fill-rule:nonzero;stroke:none"
         inkscape:connector-curvature="0" />
      <path
         id="path217"
         d="M 67.933594,10.679688 66.84375,13.039062 C 65.96875,12.601562 65.199219,12.25 64.660156,12.011719 L 65.75,9.65625 C 65.300781,9.460938 64.84375,9.277344 64.386719,9.097656 l -2.757813,5.921875 c 0.457032,0.171875 0.914063,0.351563 1.363282,0.542969 l 1.15625,-2.445312 c 0.867187,0.378906 1.636718,0.75 2.1875,1.023437 l -1.15625,2.453125 c 0.433593,0.21875 0.863281,0.445312 1.292968,0.683594 l 2.761719,-5.929688 c -0.425781,-0.230468 -0.863281,-0.449218 -1.300781,-0.667968"
         style="fill:#ffffff;fill-opacity:1;fill-rule:nonzero;stroke:none"
         inkscape:connector-curvature="0" />
      <path
         id="path219"
         d="m 38.308594,41.441406 c 1.242187,-0.863281 2.46875,-0.449218 3.476562,-0.117187 1.460938,0.476562 2.570313,-0.300781 2.570313,-0.300781 l 1.203125,1.019531 v 8.183593 c -0.71875,0.316407 -1.378906,0.527344 -2.796875,0.08984 -1.234375,-0.375 -2.339844,-0.519531 -3.238281,-0.449218 v 0.28125 c 0,0.15625 -0.542969,0.28125 -1.214844,0.28125 -0.667969,0 -1.210938,-0.125 -1.210938,-0.28125 v -0.28125 c -0.902344,-0.07031 -2.007812,0.07422 -3.238281,0.449218 -1.421875,0.4375 -2.082031,0.226563 -2.796875,-0.08984 v -8.183593 l 1.203125,-1.019531 c 0,0 1.109375,0.777343 2.570313,0.300781 1.003906,-0.332031 2.230468,-0.746094 3.472656,0.117187"
         style="fill:#211e1e;fill-opacity:1;fill-rule:nonzero;stroke:none"
         inkscape:connector-curvature="0" />
      <path
         id="path221"
         d="m 41.285156,42.132812 c 1.128906,0.394532 2.109375,0.210938 2.835938,-0.09766 v 6.878906 c -0.664063,0.265626 -1.210938,0.300782 -2.277344,-0.06641 -1.226562,-0.421875 -2.550781,-0.503906 -3.171875,-0.265625 v -6.359375 c 0.371094,-0.3125 1.191406,-0.589844 2.613281,-0.08984"
         style="fill:#b3b5b5;fill-opacity:1;fill-rule:nonzero;stroke:none"
         inkscape:connector-curvature="0" />
      <path
         id="path223"
         d="m 35.257812,42.128906 c -1.167968,0.410156 -2.175781,0.21875 -2.921874,-0.09766 v 6.894531 c 0.683593,0.273438 1.246093,0.308594 2.34375,-0.07031 1.265624,-0.433594 2.625,-0.519531 3.265624,-0.273438 v -6.359375 c -0.378906,-0.320312 -1.222656,-0.605468 -2.6875,-0.09375"
         style="fill:#b3b5b5;fill-opacity:1;fill-rule:nonzero;stroke:none"
         inkscape:connector-curvature="0" />
      <path
         id="path225"
         d="m 58.445312,41.441406 c 1.242188,-0.863281 2.46875,-0.449218 3.476563,-0.117187 1.460937,0.476562 2.570313,-0.300781 2.570313,-0.300781 l 1.203124,1.019531 v 8.183593 c -0.71875,0.316407 -1.375,0.527344 -2.796874,0.08984 -1.234376,-0.375 -2.339844,-0.519531 -3.238282,-0.449218 v 0.28125 c 0,0.15625 -0.542968,0.28125 -1.214844,0.28125 -0.667968,0 -1.210937,-0.125 -1.210937,-0.28125 v -0.28125 c -0.902344,-0.07031 -2.007813,0.07422 -3.238281,0.449218 -1.421875,0.4375 -2.082032,0.226563 -2.796875,-0.08984 v -8.183593 l 1.203125,-1.019531 c 0,0 1.109375,0.777343 2.570312,0.300781 1.003906,-0.332031 2.230469,-0.746094 3.472656,0.117187"
         style="fill:#211e1e;fill-opacity:1;fill-rule:nonzero;stroke:none"
         inkscape:connector-curvature="0" />
      <path
         id="path227"
         d="m 61.496094,42.128906 c 1.167968,0.410156 2.175781,0.21875 2.921875,-0.09766 v 6.894531 c -0.679688,0.273438 -1.246094,0.308594 -2.34375,-0.07031 -1.265625,-0.433594 -2.625,-0.519531 -3.265625,-0.273438 v -6.359375 c 0.378906,-0.320312 1.226562,-0.605468 2.6875,-0.09375"
         style="fill:#b3b5b5;fill-opacity:1;fill-rule:nonzero;stroke:none"
         inkscape:connector-curvature="0" />
      <path
         id="path229"
         d="m 55.472656,42.132812 c -1.132812,0.394532 -2.109375,0.210938 -2.835937,-0.09766 v 6.878906 c 0.660156,0.265626 1.210937,0.300782 2.273437,-0.06641 1.230469,-0.421875 2.550782,-0.503906 3.171875,-0.265625 v -6.359375 c -0.367187,-0.3125 -1.1875,-0.589844 -2.609375,-0.08984"
         style="fill:#b3b5b5;fill-opacity:1;fill-rule:nonzero;stroke:none"
         inkscape:connector-curvature="0" />
      <path
         id="path231"
         d="m 50.816406,64.28125 c 1.882813,-0.792969 2.023438,-2.699219 2.023438,-2.699219 l 0.53125,-0.339843 v -0.328126 c -0.53125,-1.257812 -1.847656,-2.65625 -3.011719,-3.558593 -0.773437,-0.59375 -0.789063,-1.246094 -0.710937,-1.621094 l 0.265624,-0.113281 c 0.257813,-0.113282 0.40625,-0.191406 0.640626,-0.06641 0.230468,0.128906 0.292968,0.04687 0.292968,0.04687 0.183594,-0.07812 0.175782,-0.457031 -0.01172,-0.851562 -0.191407,-0.390625 -0.492188,-0.644531 -0.675782,-0.5625 0,0 -0.105468,-0.01172 -0.15625,0.238281 -0.04687,0.25 -0.207031,0.304688 -0.46875,0.417969 l -0.28125,0.125 c -0.05469,-0.03516 -0.09375,-0.05469 -0.09375,-0.05469 -0.605468,-0.269531 -0.730468,0.09375 -0.730468,0.09375 -0.605469,-0.269531 -0.71875,0.183594 -0.71875,0.183594 -0.652344,-0.152344 -0.683594,0.273438 -0.683594,0.273438 -0.894532,0 -0.742188,0.566406 -0.664063,0.753906 l -1.027343,0.445312 -0.46875,-0.996093 -1.796876,0.78125 1.207032,2.554687 0.785156,0.324219 0.757812,-0.332031 0.25,-0.773438 -0.367187,-0.777344 0.820313,-0.351562 c 0.08984,0.25 0.332031,0.542969 0.851562,0.574219 0.820312,0.05469 1.042969,-0.136719 1.644531,1.253906 0.601563,1.390625 1.492188,1.902344 1.492188,1.902344 -1.414063,-0.144531 -1.796875,0.996093 -1.796875,0.996093 -2.261719,-0.101562 -2.757813,1.574219 -2.863282,2.460938 h -3.125 c 0.1875,0.371094 0.382813,0.726562 0.582032,1.066406 H 53.5 c 0.199219,-0.339844 0.394531,-0.695312 0.582031,-1.066406 h -3.265625"
         style="fill:#ffffff;fill-opacity:1;fill-rule:nonzero;stroke:none"
         inkscape:connector-curvature="0" />
      <path
         id="path233"
         d="m 86.664062,45.210938 c -0.179687,0.394531 -0.34375,1.023437 -0.304687,1.648437 0.03906,0.671875 0.34375,1.007813 0.765625,0.984375 0.402344,-0.02344 0.613281,-0.347656 0.832031,-1.140625 0.320313,-1.101563 0.871094,-1.847656 1.816407,-1.90625 1.101562,-0.06641 1.996093,0.8125 2.085937,2.332031 0.04687,0.738282 -0.06641,1.277344 -0.226563,1.671875 l -1.1875,-0.253906 c 0.109376,-0.257813 0.261719,-0.742187 0.222657,-1.363281 -0.03906,-0.636719 -0.355469,-0.925782 -0.683594,-0.90625 -0.414063,0.02734 -0.570313,0.394531 -0.835937,1.257812 -0.355469,1.167969 -0.917969,1.734375 -1.828126,1.789063 -1.085937,0.06641 -2.058593,-0.703125 -2.164062,-2.480469 -0.04687,-0.738281 0.109375,-1.480469 0.289062,-1.855469 l 1.21875,0.222657"
         style="fill:#fdfdfd;fill-opacity:1;fill-rule:nonzero;stroke:none"
         inkscape:connector-curvature="0" />
      <path
         id="path235"
         d="M 80.617188,67.332031 C 79.792969,68.808594 80.125,70.15625 81.875,71.132812 l 3.175781,1.765626 c 0.261719,-0.410157 0.523438,-0.820313 0.773438,-1.242188 l -3.3125,-1.84375 C 81.503906,69.25 81.242188,68.613281 81.617188,67.945312 81.980469,67.300781 82.6875,67.199219 83.667969,67.746094 l 3.304687,1.851562 c 0.226563,-0.433594 0.453125,-0.863281 0.664063,-1.304687 l -3.160157,-1.769531 c -1.796874,-1.003907 -3.058593,-0.617188 -3.859374,0.808593"
         style="fill:#ffffff;fill-opacity:1;fill-rule:nonzero;stroke:none"
         inkscape:connector-curvature="0" />
      <path
         id="path237"
         d="m 82.929688,36.238281 6.035156,-2.472656 c -0.175782,-0.457031 -0.351563,-0.910156 -0.546875,-1.355469 l -6.035157,2.46875 c 0.191407,0.449219 0.371094,0.902344 0.546876,1.359375"
         style="fill:#ffffff;fill-opacity:1;fill-rule:nonzero;stroke:none"
         inkscape:connector-curvature="0" />
      <path
         id="path239"
         d="m 83.980469,39.375 1.878906,-0.464844 c 1.027344,-0.253906 1.910156,-0.488281 2.738281,-0.742187 l 0.0078,0.03516 c -0.660157,0.480469 -1.371094,1.101563 -1.953125,1.640625 l -2.070313,1.933594 c 0.105469,0.507812 0.199219,1.015625 0.289063,1.53125 L 91.214844,41.75 c -0.08203,-0.445312 -0.164063,-0.890625 -0.257813,-1.332031 L 89.066406,40.875 c -0.953125,0.234375 -1.796875,0.472656 -2.609375,0.761719 l -0.0039,-0.01953 c 0.640625,-0.464844 1.335937,-1.019532 1.90625,-1.558594 L 90.402344,38.125 c -0.144532,-0.539062 -0.292969,-1.074219 -0.460938,-1.601562 l -6.351562,1.5625 c 0.140625,0.425781 0.265625,0.855468 0.390625,1.289062"
         style="fill:#ffffff;fill-opacity:1;fill-rule:nonzero;stroke:none"
         inkscape:connector-curvature="0" />
      <path
         id="path241"
         d="m 84.691406,56.660156 c -0.09375,0.484375 -0.203125,0.957032 -0.3125,1.429688 l 6.371094,1.375 c 0.109375,-0.476563 0.222656,-0.949219 0.316406,-1.429688 l -6.375,-1.375"
         style="fill:#ffffff;fill-opacity:1;fill-rule:nonzero;stroke:none"
         inkscape:connector-curvature="0" />
      <path
         id="path243"
         d="m 83.789062,74.757812 -1.023437,-0.835937 c -0.347656,0.480469 -0.769531,1.039063 -1.054687,1.40625 L 77.667969,72.0625 C 77.371094,72.449219 77.066406,72.828125 76.75,73.203125 l 4.058594,3.273437 c 0,0 -0.507813,0.609376 -1.164063,1.324219 l 1.023438,0.835938 c 1.113281,-1.230469 2.148437,-2.53125 3.121093,-3.878907"
         style="fill:#ffffff;fill-opacity:1;fill-rule:nonzero;stroke:none"
         inkscape:connector-curvature="0" />
      <path
         id="path245"
         d="m 71.644531,78.210938 c -0.0039,0.0039 -0.0039,0.0039 -0.0078,0.0078 l 0.824219,0.894531 c 0,0 1.160156,-0.980469 2.003906,-1.753906 l 1.019531,1.117187 c -0.464844,0.429688 -1.183594,1.074219 -1.792969,1.589844 l 0.8125,0.878906 c 0.64452,-0.542956 1.316394,-1.1328 1.796863,-1.5703 l 0.875,0.964844 c 0,0 -1.019531,0.941406 -1.902343,1.679687 l 0.863281,0.929688 c 1.035156,-0.855469 2.027343,-1.746094 2.964843,-2.675781 l -4.410156,-4.820313 c -0.953125,0.960937 -1.964844,1.886719 -3.046875,2.757813"
         style="fill:#ffffff;fill-opacity:1;fill-rule:nonzero;stroke:none"
         inkscape:connector-curvature="0" />
      <path
         id="path247"
         d="m 90.21875,61.507812 -1.246094,-0.441406 c -0.167968,0.570313 -0.378906,1.230469 -0.519531,1.675782 l -4.90625,-1.722657 c -0.152344,0.464844 -0.308594,0.925781 -0.480469,1.378907 l 4.914063,1.730468 c 0,0 -0.269531,0.742188 -0.648438,1.636719 l 1.242188,0.445313 c 0.640625,-1.535157 1.183593,-3.109376 1.644531,-4.703126"
         style="fill:#ffffff;fill-opacity:1;fill-rule:nonzero;stroke:none"
         inkscape:connector-curvature="0" />
      <path
         id="path249"
         d="m 91.867188,51.007812 -1.3125,-0.121093 c -0.02344,0.59375 -0.06641,1.289062 -0.09375,1.753906 L 85.28125,52.179688 c -0.03125,0.484374 -0.07031,0.972656 -0.121094,1.457031 l 5.1875,0.460937 c 0,0 -0.08203,0.789063 -0.226562,1.746094 l 1.3125,0.125 c 0.242187,-1.640625 0.382812,-3.300781 0.433594,-4.960938"
         style="fill:#ffffff;fill-opacity:1;fill-rule:nonzero;stroke:none"
         inkscape:connector-curvature="0" />
      <path
         id="path251"
         d="m 11.863281,55.125 c 0.175781,0.226562 0.460938,0.792969 0.628907,1.554688 0.488281,2.1875 -0.632813,3.625 -2.4375,4.027343 C 7.894531,61.183594 6.359375,59.90625 5.933594,57.992188 5.765625,57.25 5.78125,56.65625 5.867188,56.367188 l 1.195312,0.05469 c -0.058594,0.308594 -0.082031,0.734375 0.03125,1.25 0.25,1.128906 1.132812,1.859375 2.542969,1.546875 1.265625,-0.28125 1.898437,-1.210938 1.617187,-2.480469 -0.09766,-0.441406 -0.285156,-0.890625 -0.472656,-1.15625 L 11.863281,55.125"
         style="fill:#fdfdfd;fill-opacity:1;fill-rule:nonzero;stroke:none"
         inkscape:connector-curvature="0" />
      <path
         id="path253"
         d="M 9.679688,66.0625 C 9.613281,65.976562 9.519531,65.796875 9.386719,65.46875 9.132812,64.84375 9.265625,64.351562 9.8125,64.136719 c 0.523438,-0.21875 1.023438,0.04687 1.296875,0.722656 l 0.21875,0.535156 z M 12.308594,65 12.144531,64.597656 c -0.21875,-0.566406 -0.125,-0.902344 0.5625,-1.378906 0.460938,-0.320312 0.804688,-0.585938 1.210938,-0.941406 -0.175781,-0.480469 -0.339844,-0.964844 -0.496094,-1.453125 -0.570313,0.476562 -1.089844,0.847656 -1.550781,1.199219 -0.488282,0.375 -0.789063,0.761718 -0.789063,1.253906 l -0.02734,0.0078 C 10.660156,62.84375 9.910156,62.515625 9.152344,62.820312 c -0.550782,0.222657 -0.898438,0.59375 -1.035156,1.078126 -0.167969,0.5625 -0.046876,1.242187 0.3125,2.132812 0.296874,0.730469 0.609374,1.351562 0.859374,1.757812 l 5.941407,-2.410156 c -0.210938,-0.433594 -0.40625,-0.875 -0.597657,-1.324218 L 12.308594,65"
         style="fill:#fdfdfd;fill-opacity:1;fill-rule:nonzero;stroke:none"
         inkscape:connector-curvature="0" />
      <path
         id="path255"
         d="m 11.640625,49.488281 c 0,-0.0039 0,-0.01172 0,-0.01563 l -1.21875,0.07813 c 0,0 0.03906,1.527344 0.109375,2.667969 l -1.511719,0.08594 c -0.039062,-0.625 -0.09375,-1.589844 -0.105469,-2.390626 l -1.199218,0.07813 c 0.019531,0.847656 0.054687,1.734374 0.09375,2.386718 l -1.300782,0.07813 c 0,0 -0.089843,-1.390625 -0.109374,-2.539062 l -1.265626,0.08984 c 0.015626,1.34375 0.085938,2.675782 0.21875,3.988282 l 6.519532,-0.402344 c -0.148438,-1.351562 -0.230469,-2.714844 -0.230469,-4.105469"
         style="fill:#ffffff;fill-opacity:1;fill-rule:nonzero;stroke:none"
         inkscape:connector-curvature="0" />
      <path
         id="path257"
         d="m 15.613281,72.402344 c 1.078125,-0.691406 1.507813,-1.679688 0.976563,-2.503906 -0.535156,-0.832032 -1.636719,-0.804688 -2.695313,-0.121094 -0.988281,0.632812 -1.535156,1.636718 -0.988281,2.488281 0.539062,0.839844 1.644531,0.820313 2.707031,0.136719 z m -2.597656,-3.90625 c 1.800781,-1.152344 3.566406,-0.765625 4.597656,0.839844 1.035157,1.613281 0.421875,3.351562 -1.140625,4.355468 -1.636718,1.046875 -3.535156,0.78125 -4.5625,-0.824218 C 10.832031,71.191406 11.5,69.472656 13.015625,68.496094"
         style="fill:#fdfdfd;fill-opacity:1;fill-rule:nonzero;stroke:none"
         inkscape:connector-curvature="0" />
      <path
         id="path259"
         d="m 10.179688,47.660156 c 0.234374,-0.363281 0.496093,-0.957031 0.558593,-1.578125 0.0625,-0.671875 -0.179687,-1.050781 -0.601562,-1.09375 -0.398438,-0.03906 -0.660157,0.246094 -1.003907,0.992188 -0.488281,1.039062 -1.148437,1.6875 -2.085937,1.59375 -1.101563,-0.105469 -1.84375,-1.113281 -1.695313,-2.625 0.070313,-0.738281 0.265626,-1.25 0.484376,-1.617188 l 1.136718,0.441407 c -0.148437,0.238281 -0.375,0.6875 -0.4375,1.308593 -0.058594,0.632813 0.207032,0.964844 0.53125,1 0.410156,0.03906 0.628906,-0.296875 1.027344,-1.109375 C 8.625,43.875 9.269531,43.40625 10.179688,43.496094 c 1.078124,0.105468 1.917968,1.015625 1.746093,2.789062 -0.07422,0.734375 -0.34375,1.445313 -0.582031,1.785156 l -1.164062,-0.410156"
         style="fill:#fdfdfd;fill-opacity:1;fill-rule:nonzero;stroke:none"
         inkscape:connector-curvature="0" />
      <path
         id="path261"
         d="m 14.5,27.621094 -0.3125,0.484375 -1.496094,-0.972657 c 0.03516,-0.105468 0.132813,-0.285156 0.324219,-0.582031 0.367187,-0.566406 0.847656,-0.734375 1.339844,-0.414062 0.472656,0.308593 0.542969,0.871093 0.144531,1.484375 z m 0.574219,1.0625 0.234375,-0.363282 c 0.339844,-0.503906 0.667968,-0.621093 1.453125,-0.328124 0.585937,0.214843 1.03125,0.347656 1.472656,0.460937 0.292969,-0.425781 0.59375,-0.84375 0.90625,-1.253906 -0.59375,-0.152344 -1.253906,-0.378907 -1.875,-0.582031 -0.589844,-0.1875 -1.078125,-0.207032 -1.480469,0.07031 l -0.02344,-0.01172 c 0.132812,-0.582031 -0.01953,-1.382812 -0.707031,-1.828125 -0.5,-0.328125 -1.003907,-0.402344 -1.476563,-0.238281 -0.558594,0.1875 -1.046875,0.671875 -1.570313,1.480469 -0.429687,0.660156 -0.761718,1.273437 -0.953124,1.710937 l 5.390624,3.492188 c 0.238282,-0.421875 0.484376,-0.839844 0.738282,-1.25 l -2.109375,-1.359375"
         style="fill:#fdfdfd;fill-opacity:1;fill-rule:nonzero;stroke:none"
         inkscape:connector-curvature="0" />
      <path
         id="path263"
         d="m 23.027344,76.128906 -2.394532,1.507813 c -0.570312,0.347656 -1.082031,0.707031 -1.683593,1.140625 l -0.01563,-0.01563 c 0.472656,-0.574219 0.828125,-1.078125 1.207031,-1.625 l 1.57813,-2.32812 C 21.355469,74.425781 21,74.03125 20.65625,73.632812 l -5.722656,3.335938 c 0.308594,0.378906 0.632812,0.746094 0.957031,1.117188 l 2.242187,-1.488282 c 0.652344,-0.449218 1.289063,-0.882812 1.875,-1.320312 l 0.01172,0.01172 c -0.445312,0.578126 -0.863281,1.140626 -1.300781,1.777344 l -1.621094,2.339844 c 0.347656,0.367188 0.699219,0.726562 1.0625,1.082031 l 2.34375,-1.492187 c 0.6875,-0.453125 1.355469,-0.894532 1.925782,-1.3125 l 0.01562,0.01563 c -0.390624,0.535156 -0.890624,1.21875 -1.34375,1.871093 l -1.546874,2.226563 c 0.371093,0.339844 0.753906,0.667969 1.140624,0.988281 l 3.519532,-5.570312 c -0.402344,-0.355469 -0.800782,-0.71875 -1.1875,-1.085938"
         style="fill:#ffffff;fill-opacity:1;fill-rule:nonzero;stroke:none"
         inkscape:connector-curvature="0" />
      <path
         id="path265"
         d="m 15.683594,32.746094 c 0.0039,-0.0039 0.0039,-0.0039 0.0078,-0.01172 l -1.117187,-0.488281 c 0,0 -0.667969,1.367187 -1.132813,2.410156 L 12.0625,34.039062 c 0.253906,-0.570312 0.648438,-1.453124 1.007812,-2.171874 l -1.097656,-0.480469 c -0.378906,0.757812 -0.753906,1.566406 -1.015625,2.160156 l -1.191406,-0.53125 c 0,0 0.554687,-1.273437 1.066406,-2.296875 L 9.671875,30.210938 C 9.066406,31.410156 8.511719,32.625 8.027344,33.851562 L 14,36.496094 c 0.488281,-1.261719 1.042969,-2.515625 1.683594,-3.75"
         style="fill:#ffffff;fill-opacity:1;fill-rule:nonzero;stroke:none"
         inkscape:connector-curvature="0" />
      <path
         id="path267"
         d="m 5.972656,40.953125 1.273438,0.332031 c 0.121094,-0.578125 0.277344,-1.257812 0.386718,-1.710937 l 5.027344,1.316406 c 0.113282,-0.472656 0.234375,-0.945313 0.363282,-1.414063 L 7.984375,38.15625 c 0,0 0.210937,-0.765625 0.515625,-1.683594 l -1.273438,-0.34375 c -0.515624,1.582032 -0.925781,3.191406 -1.253906,4.824219"
         style="fill:#ffffff;fill-opacity:1;fill-rule:nonzero;stroke:none"
         inkscape:connector-curvature="0" />
      <path
         id="path269"
         d="m 39.515625,86.84375 -0.01953,-0.0039 -1.289063,0.285156 0.0078,-1.121094 1.796875,-0.382812 1.171875,0.269531 -1.390625,6.097656 -1.382813,-0.320312 1.105469,-4.824219"
         style="fill:#ffffff;fill-opacity:1;fill-rule:nonzero;stroke:none"
         inkscape:connector-curvature="0" />
      <path
         id="path271"
         d="m 44.304688,87.984375 c -0.03516,0.421875 0.316406,0.722656 0.800781,0.921875 0.34375,-0.07031 0.667969,-0.347656 0.699219,-0.730469 0.03906,-0.394531 -0.148438,-0.792969 -0.6875,-0.84375 -0.496094,-0.04687 -0.777344,0.269531 -0.8125,0.652344 z m 1.371093,3.097656 c 0.04687,-0.546875 -0.335937,-0.910156 -0.886719,-1.113281 -0.492187,0.09375 -0.800781,0.414062 -0.839843,0.863281 -0.05078,0.449219 0.257812,0.902344 0.804687,0.949219 0.507813,0.04687 0.882813,-0.257812 0.921875,-0.699219 z m -1.972656,-1.71875 c -0.578125,-0.375 -0.828125,-0.90625 -0.78125,-1.453125 0.09375,-1.054687 1.105469,-1.667968 2.351563,-1.558594 1.457031,0.125 1.984374,1.023438 1.917968,1.785157 -0.04687,0.53125 -0.378906,1.035156 -1.03125,1.289062 l -0.0039,0.02734 c 0.59375,0.285156 1.085938,0.847656 1.015625,1.644531 -0.101563,1.132813 -1.117187,1.816406 -2.5625,1.6875 C 43.027344,92.644531 42.375,91.6875 42.453125,90.84375 c 0.0625,-0.75 0.539063,-1.226562 1.246094,-1.460938 l 0.0039,-0.01953"
         style="fill:#ffffff;fill-opacity:1;fill-rule:nonzero;stroke:none"
         inkscape:connector-curvature="0" />
      <path
         id="path273"
         d="m 52.277344,90.617188 c -0.03906,-0.574219 -0.378906,-1.054688 -1.003906,-1.011719 -0.394532,0.02734 -0.707032,0.289062 -0.820313,0.601562 -0.04297,0.09375 -0.05078,0.210938 -0.04297,0.378907 0.07422,0.664062 0.429688,1.238281 1.101563,1.195312 0.511719,-0.03906 0.804687,-0.53125 0.765626,-1.164062 z m 0.589844,-3.183594 c -0.167969,0 -0.339844,0.02344 -0.570313,0.05859 -1.285156,0.191406 -1.820313,0.894531 -1.933594,1.625 l 0.02734,-0.0039 c 0.285156,-0.328125 0.71875,-0.539062 1.292969,-0.578125 1.046875,-0.06641 1.980468,0.609375 2.066406,1.910156 0.08203,1.234376 -0.800781,2.316407 -2.144531,2.410157 -1.671875,0.109375 -2.570313,-1.074219 -2.671875,-2.5625 -0.07813,-1.175781 0.289062,-2.179688 0.929687,-2.863281 0.578125,-0.605469 1.375,-0.957032 2.339844,-1.070313 0.269531,-0.04687 0.453125,-0.05078 0.585937,-0.05078 l 0.07813,1.125"
         style="fill:#ffffff;fill-opacity:1;fill-rule:nonzero;stroke:none"
         inkscape:connector-curvature="0" />
      <path
         id="path275"
         d="m 58.6875,86.488281 -2.367188,0.523438 0.07422,0.96875 c 0.128907,-0.04687 0.242188,-0.07422 0.390625,-0.105469 0.582032,-0.128906 1.214844,-0.128906 1.707032,0.08594 0.527343,0.207031 0.921874,0.652343 1.078124,1.371093 0.25,1.132813 -0.503906,2.355469 -2.148437,2.71875 -0.742187,0.164063 -1.402344,0.128907 -1.777344,0.02344 l 0.02734,-1.125 c 0.289063,0.07422 0.882813,0.121093 1.4375,-0.0039 0.589844,-0.128906 1.160156,-0.550781 1.015625,-1.199218 -0.140625,-0.628906 -0.722656,-0.902344 -1.941406,-0.632813 -0.339844,0.07422 -0.570313,0.144531 -0.804688,0.234375 l -0.3125,-3.289062 3.363282,-0.742188 0.257812,1.171875"
         style="fill:#ffffff;fill-opacity:1;fill-rule:nonzero;stroke:none"
         inkscape:connector-curvature="0" />
      <path
         id="path277"
         d="m 30.882812,84.988281 c 0,0.710938 -0.574218,1.285157 -1.28125,1.285157 -0.707031,0 -1.28125,-0.574219 -1.28125,-1.285157 0,-0.703125 0.574219,-1.277343 1.28125,-1.277343 0.707032,0 1.28125,0.574218 1.28125,1.277343"
         style="fill:#ffffff;fill-opacity:1;fill-rule:nonzero;stroke:none"
         inkscape:connector-curvature="0" />
      <path
         id="path279"
         d="m 65.808594,84.988281 c 0,0.710938 0.574218,1.285157 1.28125,1.285157 0.707031,0 1.28125,-0.574219 1.28125,-1.285157 0,-0.703125 -0.574219,-1.277343 -1.28125,-1.277343 -0.707032,0 -1.28125,0.574218 -1.28125,1.277343"
         style="fill:#ffffff;fill-opacity:1;fill-rule:nonzero;stroke:none"
         inkscape:connector-curvature="0" />
      <path
         id="path281"
         d="m 32.632812,28.378906 -1.167968,-2.71875 c -3.601563,0.761719 -5.425782,3.773438 -5.425782,3.773438 0,0 2.277344,0.644531 6.59375,-1.054688"
         style="fill:#211e1e;fill-opacity:1;fill-rule:nonzero;stroke:none"
         inkscape:connector-curvature="0" />
      <path
         id="path283"
         d="m 31.464844,25.660156 h -5.855469 l 1.472656,2.488282 c 0.890625,-0.917969 2.355469,-2.058594 4.382813,-2.488282"
         style="fill:#ffffff;fill-opacity:1;fill-rule:nonzero;stroke:none"
         inkscape:connector-curvature="0" />
      <path
         id="path285"
         d="m 69.953125,28.148438 1.46875,-2.488282 h -5.855469 c 2.027344,0.429688 3.492188,1.570313 4.386719,2.488282"
         style="fill:#ffffff;fill-opacity:1;fill-rule:nonzero;stroke:none"
         inkscape:connector-curvature="0" />
      <path
         id="path287"
         d="m 40.6875,28.945312 c 0,0.730469 1.933594,1.359376 4.707031,1.636719 v -4.609375 c 0,1.515625 -4.707031,1.171875 -4.707031,2.972656"
         style="fill:#211e1e;fill-opacity:1;fill-rule:nonzero;stroke:none"
         inkscape:connector-curvature="0" />
      <path
         id="path289"
         d="m 39.292969,66.539062 c 0.222656,-0.644531 0.183593,-1.382812 -0.117188,-2.042968 -0.511719,0.210937 -0.910156,0.605468 -1.15625,1.105468 0.25,0.59375 0.511719,1.164063 0.785157,1.691407 0.203124,-0.214844 0.382812,-0.457031 0.488281,-0.753907"
         style="fill:#ffffff;fill-opacity:1;fill-rule:nonzero;stroke:none"
         inkscape:connector-curvature="0" />
      <path
         id="path291"
         d="M 41.066406,69.175781 C 41.203125,68.445312 41.042969,67.65625 40.621094,67 c -0.5625,0.34375 -0.953125,0.914062 -1.105469,1.585938 0.359375,0.613281 0.714844,1.171874 1.050781,1.660156 0.238282,-0.308594 0.425782,-0.660156 0.5,-1.070313"
         style="fill:#ffffff;fill-opacity:1;fill-rule:nonzero;stroke:none"
         inkscape:connector-curvature="0" />
      <path
         id="path293"
         d="m 38.011719,63.316406 c 0.308593,-0.605468 0.355469,-1.335937 0.136719,-2.023437 -0.523438,0.128906 -0.964844,0.453125 -1.273438,0.898437 0.152344,0.625 0.335938,1.226563 0.535156,1.816406 0.242188,-0.1875 0.457032,-0.410156 0.601563,-0.691406"
         style="fill:#ffffff;fill-opacity:1;fill-rule:nonzero;stroke:none"
         inkscape:connector-curvature="0" />
      <path
         id="path295"
         d="m 37.253906,59.878906 c 0.386719,-0.542968 0.535156,-1.25 0.410156,-1.953125 -0.488281,0.04297 -0.921874,0.246094 -1.269531,0.558594 0.01563,0.671875 0.06641,1.335937 0.160157,1.980469 0.265624,-0.148438 0.511718,-0.328125 0.699218,-0.585938"
         style="fill:#ffffff;fill-opacity:1;fill-rule:nonzero;stroke:none"
         inkscape:connector-curvature="0" />
      <path
         id="path297"
         d="m 41.636719,72.316406 c -5.097657,-5.429687 -5.875,-11.523437 -5.867188,-14.722656 l 0.08594,-0.08203 c 0,-0.0039 0,-0.0039 0,-0.0078 0.398437,-0.382812 0.683593,-0.882812 0.78125,-1.460937 0.128906,-0.765625 -0.05859,-1.582031 -0.507813,-2.261719 -0.613281,0.390625 -1.03125,1.035156 -1.15625,1.789062 -0.113281,0.675782 0.02734,1.382813 0.371094,2.003907 -0.08594,0.527343 -0.144531,1.054687 -0.164062,1.574219 -0.05859,-0.175782 -0.125,-0.34375 -0.21875,-0.503907 -0.371094,-0.660156 -0.972657,-1.148437 -1.664063,-1.363281 -0.164063,0.703125 -0.04687,1.472656 0.328125,2.125 0.300781,0.527344 1.003906,1.105469 1.582031,1.394531 0.03906,0.554688 0.101563,1.109375 0.203125,1.65625 -0.0625,-0.08984 -0.113281,-0.179687 -0.179687,-0.257812 -0.484375,-0.578125 -1.152344,-0.941407 -1.859375,-1.011719 -0.02734,0.734375 0.230468,1.476562 0.714844,2.054688 0.460937,0.546874 1.09375,0.898437 1.761718,0.992187 0.175782,0.578125 0.371094,1.148437 0.601563,1.707031 -0.08203,-0.08594 -0.160157,-0.171875 -0.25,-0.246094 C 35.625,65.222656 34.917969,65 34.226562,65.078125 c 0.109376,0.742187 0.496094,1.433594 1.078126,1.90625 0.558593,0.457031 1.246093,0.671875 1.917968,0.613281 0.257813,0.507813 0.535156,1 0.824219,1.484375 -0.101563,-0.07813 -0.203125,-0.15625 -0.316406,-0.21875 -0.675781,-0.363281 -1.457031,-0.4375 -2.140625,-0.203125 0.261718,0.761719 0.800781,1.40625 1.492187,1.78125 0.464844,0.25 0.972657,0.363282 1.472657,0.332032 0.1875,-0.01172 0.367187,-0.05078 0.542968,-0.09766 0.785156,1.113281 1.636719,2.148438 2.488282,3.09375 -0.05078,-0.5625 -0.01172,-1.058593 0.05078,-1.453125"
         style="fill:#ffffff;fill-opacity:1;fill-rule:nonzero;stroke:none"
         inkscape:connector-curvature="0" />
      <path
         id="path299"
         d="m 57.46875,66.539062 c -0.222656,-0.644531 -0.179688,-1.382812 0.121094,-2.042968 0.507812,0.210937 0.90625,0.605468 1.152344,1.105468 -0.25,0.59375 -0.511719,1.164063 -0.785157,1.691407 -0.203125,-0.214844 -0.382812,-0.457031 -0.488281,-0.753907"
         style="fill:#ffffff;fill-opacity:1;fill-rule:nonzero;stroke:none"
         inkscape:connector-curvature="0" />
      <path
         id="path301"
         d="M 55.695312,69.175781 C 55.558594,68.445312 55.71875,67.65625 56.140625,67 c 0.5625,0.34375 0.953125,0.914062 1.105469,1.585938 -0.359375,0.613281 -0.714844,1.171874 -1.050782,1.660156 -0.238281,-0.308594 -0.425781,-0.660156 -0.5,-1.070313"
         style="fill:#ffffff;fill-opacity:1;fill-rule:nonzero;stroke:none"
         inkscape:connector-curvature="0" />
      <path
         id="path303"
         d="m 58.75,63.316406 c -0.304688,-0.605468 -0.355469,-1.335937 -0.136719,-2.023437 0.523438,0.128906 0.964844,0.453125 1.273438,0.898437 -0.152344,0.625 -0.335938,1.226563 -0.535157,1.816406 -0.238281,-0.1875 -0.457031,-0.410156 -0.601562,-0.691406"
         style="fill:#ffffff;fill-opacity:1;fill-rule:nonzero;stroke:none"
         inkscape:connector-curvature="0" />
      <path
         id="path305"
         d="m 59.511719,59.878906 c -0.390625,-0.542968 -0.539063,-1.25 -0.414063,-1.953125 0.488282,0.04297 0.921875,0.246094 1.273438,0.558594 -0.01953,0.671875 -0.07031,1.335937 -0.160156,1.980469 -0.269532,-0.148438 -0.515626,-0.328125 -0.699219,-0.585938"
         style="fill:#ffffff;fill-opacity:1;fill-rule:nonzero;stroke:none"
         inkscape:connector-curvature="0" />
      <path
         id="path307"
         d="M 55.125,72.316406 C 60.226562,66.886719 61,60.792969 60.992188,57.59375 l -0.08594,-0.08203 c 0,-0.0039 0,-0.0039 0,-0.0078 C 60.507812,57.121094 60.226562,56.621094 60.128906,56.042969 60,55.277344 60.183594,54.460938 60.636719,53.78125 c 0.609375,0.390625 1.027343,1.035156 1.152343,1.789062 0.113282,0.675782 -0.02734,1.382813 -0.367187,2.003907 0.08594,0.527343 0.140625,1.054687 0.164063,1.574219 0.05859,-0.175782 0.121093,-0.34375 0.214843,-0.503907 0.375,-0.660156 0.972657,-1.148437 1.664063,-1.363281 0.164062,0.703125 0.05078,1.472656 -0.324219,2.125 -0.300781,0.527344 -1.003906,1.105469 -1.582031,1.394531 -0.04297,0.554688 -0.105469,1.109375 -0.203125,1.65625 0.05859,-0.08984 0.109375,-0.179687 0.179687,-0.257812 0.480469,-0.578125 1.152344,-0.941407 1.855469,-1.011719 0.02734,0.734375 -0.226563,1.476562 -0.714844,2.054688 -0.460937,0.546874 -1.09375,0.898437 -1.761719,0.992187 -0.171874,0.578125 -0.371093,1.148437 -0.597656,1.707031 0.07813,-0.08594 0.15625,-0.171875 0.246094,-0.246094 0.574219,-0.472656 1.285156,-0.695312 1.976562,-0.617187 -0.109374,0.742187 -0.5,1.433594 -1.082031,1.90625 -0.554687,0.457031 -1.246093,0.671875 -1.914062,0.613281 -0.261719,0.507813 -0.535157,1 -0.828125,1.484375 0.101562,-0.07813 0.207031,-0.15625 0.320312,-0.21875 0.675782,-0.363281 1.453125,-0.4375 2.136719,-0.203125 -0.261719,0.761719 -0.796875,1.40625 -1.488281,1.78125 -0.464844,0.25 -0.976563,0.363282 -1.476563,0.332032 -0.183593,-0.01172 -0.363281,-0.05078 -0.539062,-0.09766 -0.789063,1.113281 -1.636719,2.148438 -2.492188,3.09375 0.05078,-0.5625 0.01172,-1.058593 -0.05078,-1.453125"
         style="fill:#ffffff;fill-opacity:1;fill-rule:nonzero;stroke:none"
         inkscape:connector-curvature="0" />
      <path
         id="path309"
         d="m 53.597656,68.105469 c -0.722656,-0.78125 -1.6875,-1.214844 -2.71875,-1.214844 -0.917968,0 -1.789062,0.34375 -2.476562,0.972656 -1.457032,-1.335937 -3.832032,-1.242187 -5.191406,0.238281 -0.777344,0.84375 -1.167969,2.003907 -1.070313,3.199219 0.0078,0.06641 0.01563,0.105469 0.01563,0.101563 0.0039,0.05859 0.01172,0.117187 0.02344,0.1875 0.02734,0.152344 0.0625,0.328125 0.140624,0.613281 0.01953,0.07422 0.03906,0.144531 0.0625,0.210937 0.226563,0.652344 0.511719,1.253907 0.875,1.855469 0.976563,1.570313 2.511719,3.074219 4.5625,4.472657 l 0.582032,0.402343 0.582031,-0.402343 c 0.828125,-0.5625 1.585937,-1.15625 2.285156,-1.796876 1.429688,-1.4375 2.492188,-2.605468 3.160157,-4.550781 l 0.03125,-0.109375 c 0.109374,-0.363281 0.179687,-0.714844 0.210937,-1.058594 0.07813,-1.15625 -0.3125,-2.296874 -1.074219,-3.121093"
         style="fill:#211e1e;fill-opacity:1;fill-rule:nonzero;stroke:none"
         inkscape:connector-curvature="0" />
      <path
         id="path311"
         d="m 43.347656,71.3125 c 0.01953,0.121094 0.04687,0.261719 0.08984,0.414062 0.02344,0.07422 0.03906,0.152344 0.06641,0.222657 0.207032,0.597656 0.460938,1.121093 0.753906,1.601562 0.714844,1.148438 1.964844,2.558594 4.144532,4.046875 0.816406,-0.554687 1.5,-1.101562 2.074218,-1.628906 1.230469,-1.234375 2.234376,-2.296875 2.832032,-4.035156 0.0078,-0.02344 0.01563,-0.04297 0.01953,-0.07031 0.101563,-0.34375 0.148437,-0.617187 0.164063,-0.808593 0.05469,-0.816407 -0.203126,-1.65625 -0.78125,-2.285157 -1.046876,-1.140625 -2.75,-1.140625 -3.800782,0 -0.21875,0.238281 -0.378906,0.507813 -0.507812,0.792969 -0.128906,-0.285156 -0.289063,-0.554688 -0.507813,-0.792969 -1.050781,-1.140625 -2.75,-1.140625 -3.800781,0 -0.585938,0.636719 -0.84375,1.5 -0.777344,2.332031 0.0039,0.03516 0.0078,0.06641 0.01563,0.105469 0.0039,0.03516 0.0078,0.07031 0.01563,0.105469"
         style="fill:#b3b5b5;fill-opacity:1;fill-rule:nonzero;stroke:none"
         inkscape:connector-curvature="0" />
      <path
         id="path313"
         d="m 64.402344,28.378906 1.164062,-2.71875 c 3.605469,0.761719 5.429688,3.773438 5.429688,3.773438 0,0 -2.28125,0.644531 -6.59375,-1.054688"
         style="fill:#211e1e;fill-opacity:1;fill-rule:nonzero;stroke:none"
         inkscape:connector-curvature="0" />
      <path
         id="path315"
         d="m 56.34375,28.945312 c 0,0.730469 -1.933594,1.359376 -4.707031,1.636719 v -4.609375 c 0,1.515625 4.707031,1.171875 4.707031,2.972656"
         style="fill:#211e1e;fill-opacity:1;fill-rule:nonzero;stroke:none"
         inkscape:connector-curvature="0" />
      <path
         id="path317"
         d="m 61.613281,33.613281 c 0,0 2.289063,1.15625 5.070313,1.414063 l 4.308594,-5.59375 c 0,0 -3.273438,0.941406 -9.433594,-2.378906 -6.359375,-3.425782 -9.921875,-2.59375 -9.921875,-1.078126 0,1.511719 4.707031,1.164063 4.707031,2.96875 0,0.980469 -3.496094,1.78125 -7.828125,1.792969 -4.332031,-0.01172 -7.828125,-0.8125 -7.828125,-1.792969 0,-1.804687 4.707031,-1.457031 4.707031,-2.96875 0,-1.515624 -3.5625,-2.347656 -9.921875,1.078126 -6.15625,3.320312 -9.433594,2.378906 -9.433594,2.378906 l 4.308594,5.59375 c 1.195313,-0.08203 2.890625,-0.429688 5.125,-1.441406 2.035156,-1.09375 3.777344,-1.75 5.214844,-2.09375 v 3.347656 c 0,0.988281 3.554688,1.792968 7.9375,1.792968 4.378906,0 7.71875,-0.804687 7.71875,-1.792968 v -3.292969 c 1.394531,0.355469 3.28125,0.996094 5.214844,2.039063"
         style="fill:#ffffff;fill-opacity:1;fill-rule:nonzero;stroke:none"
         inkscape:connector-curvature="0" />
      <path
         id="path319"
         d="m 31.355469,30.269531 0.628906,-0.132812 v 2.53125 L 32.8125,32.492188 v 0.5 l -1.457031,0.3125 v -3.035157"
         style="fill:#211e1e;fill-opacity:1;fill-rule:nonzero;stroke:none"
         inkscape:connector-curvature="0" />
      <path
         id="path321"
         d="m 34.503906,31.101562 -0.710937,0.242188 v 0.816406 l 0.804687,-0.269531 v 0.511719 l -1.414062,0.476562 v -3.03125 l 1.363281,-0.460937 v 0.511719 l -0.753906,0.253906 v 0.699218 l 0.710937,-0.242187 v 0.492187"
         style="fill:#211e1e;fill-opacity:1;fill-rule:nonzero;stroke:none"
         inkscape:connector-curvature="0" />
      <path
         id="path323"
         d="m 35.578125,28.914062 v 1.214844 L 36.1875,29.839844 V 28.625 l 0.582031,-0.277344 v 3.035156 L 36.1875,31.65625 v -1.265625 l -0.609375,0.285156 v 1.269531 l -0.582031,0.277344 V 29.1875 l 0.582031,-0.273438"
         style="fill:#211e1e;fill-opacity:1;fill-rule:nonzero;stroke:none"
         inkscape:connector-curvature="0" />
      <path
         id="path325"
         d="m 37.878906,29.226562 0.109375,-0.04687 c 0.257813,-0.109376 0.40625,-0.378907 0.40625,-0.644532 0,-0.257812 -0.105469,-0.394531 -0.367187,-0.292968 -0.05469,0.02344 -0.117188,0.05078 -0.148438,0.07812 z m -0.59375,-1.074218 c 0.1875,-0.117188 0.421875,-0.238282 0.648438,-0.332032 0.328125,-0.136718 0.621094,-0.210937 0.816406,-0.117187 0.1875,0.08594 0.246094,0.265625 0.246094,0.527344 0,0.324219 -0.164063,0.683593 -0.472656,0.953125 v 0.0078 c 0.207031,0 0.3125,0.144532 0.371093,0.449219 0.05859,0.3125 0.140625,0.652344 0.195313,0.742187 l -0.621094,0.261719 c -0.03906,-0.07031 -0.109375,-0.347656 -0.152344,-0.667969 -0.05469,-0.347656 -0.152344,-0.417968 -0.34375,-0.335937 l -0.09375,0.03906 v 1.210937 l -0.59375,0.25 v -2.988281"
         style="fill:#211e1e;fill-opacity:1;fill-rule:nonzero;stroke:none"
         inkscape:connector-curvature="0" />
      <path
         id="path327"
         d="m 57.300781,27.019531 0.605469,0.226563 v 1.363281 l 0.01172,0.0078 c 0.05078,-0.105469 0.09766,-0.222657 0.148437,-0.335938 l 0.410156,-0.8125 0.667969,0.253906 -0.699219,1.050782 0.707032,1.984374 -0.660156,-0.25 -0.449219,-1.429687 -0.136719,0.195313 v 1.007812 l -0.605469,-0.230469 v -3.03125"
         style="fill:#211e1e;fill-opacity:1;fill-rule:nonzero;stroke:none"
         inkscape:connector-curvature="0" />
      <path
         id="path329"
         d="m 59.960938,28.101562 v 1.972657 c 0,0.445312 0.128906,0.640625 0.285156,0.710937 0.171875,0.07813 0.292968,0.01172 0.292968,-0.445312 V 28.367188 L 61.125,28.632812 v 1.871094 c 0,0.777344 -0.296875,1.066406 -0.871094,0.800782 C 59.621094,31.015625 59.375,30.46875 59.375,29.707031 v -1.871093 l 0.585938,0.265624"
         style="fill:#211e1e;fill-opacity:1;fill-rule:nonzero;stroke:none"
         inkscape:connector-curvature="0" />
      <path
         id="path331"
         d="m 61.613281,31.933594 v -3.03125 l 0.546875,0.222656 0.472656,1.378906 c 0.09375,0.273438 0.242188,0.726563 0.328126,1.023438 l 0.0078,0.0039 c -0.01953,-0.328125 -0.05859,-0.871094 -0.05859,-1.429688 v -0.671874 l 0.523438,0.214843 v 3.035157 l -0.546875,-0.222657 -0.46875,-1.347656 C 62.3125,30.8125 62.175781,30.367188 62.105469,30.070312 l -0.01172,-0.0039 c 0.01953,0.3125 0.04297,0.789063 0.04297,1.402344 v 0.679688 L 61.613281,31.9336"
         style="fill:#211e1e;fill-opacity:1;fill-rule:nonzero;stroke:none"
         inkscape:connector-curvature="0" />
      <path
         id="path333"
         d="m 63.824219,32.191406 c 0.128906,0.101563 0.351562,0.210938 0.527343,0.261719 0.289063,0.07813 0.433594,-0.02734 0.433594,-0.226563 0,-0.21875 -0.140625,-0.367187 -0.410156,-0.605468 -0.4375,-0.371094 -0.601562,-0.734375 -0.601562,-1.007813 0,-0.488281 0.339843,-0.800781 1.003906,-0.621093 0.214844,0.05859 0.414062,0.164062 0.503906,0.242187 l -0.101562,0.484375 c -0.08984,-0.07813 -0.226563,-0.167969 -0.402344,-0.214844 -0.265625,-0.07031 -0.394532,0.04687 -0.394532,0.210938 0,0.179687 0.09375,0.300781 0.4375,0.589844 0.425782,0.359374 0.578126,0.707031 0.578126,1.023437 0,0.554687 -0.429688,0.804687 -1.054688,0.636719 -0.253906,-0.07031 -0.5,-0.199219 -0.609375,-0.289063 l 0.08984,-0.484375"
         style="fill:#211e1e;fill-opacity:1;fill-rule:nonzero;stroke:none"
         inkscape:connector-curvature="0" />
      <path
         id="path335"
         d="m 66.144531,30.863281 -0.578125,-0.09375 v -0.546875 l 1.796875,0.289063 v 0.546875 l -0.582031,-0.09375 v 2.488281 l -0.636719,-0.101563 v -2.488281"
         style="fill:#211e1e;fill-opacity:1;fill-rule:nonzero;stroke:none"
         inkscape:connector-curvature="0" />
      <path
         id="path337"
         d="m 45.398438,32.066406 v 1.964844 c 0,0.445312 0.15625,0.589844 0.347656,0.605469 0.207031,0.01563 0.351562,-0.09375 0.351562,-0.550781 v -1.964844 l 0.714844,0.05469 v 1.863281 c 0,0.773438 -0.359375,1.167969 -1.0625,1.113282 -0.765625,-0.05859 -1.066406,-0.519532 -1.066406,-1.273438 v -1.867187 l 0.714844,0.05469"
         style="fill:#211e1e;fill-opacity:1;fill-rule:nonzero;stroke:none"
         inkscape:connector-curvature="0" />
      <path
         id="path339"
         d="m 47.421875,35.222656 v -3.023437 l 0.65625,0.0039 0.570313,1.183594 c 0.113281,0.234375 0.289062,0.625 0.390624,0.882812 h 0.01172 c -0.01953,-0.316406 -0.07031,-0.84375 -0.07031,-1.398437 v -0.667969 h 0.628906 v 3.023437 h -0.65625 l -0.5625,-1.148437 c -0.125,-0.257813 -0.289063,-0.644531 -0.375,-0.914063 h -0.01172 c 0.01953,0.304688 0.04687,0.773438 0.04687,1.382813 v 0.675781 h -0.628906"
         style="fill:#211e1e;fill-opacity:1;fill-rule:nonzero;stroke:none"
         inkscape:connector-curvature="0" />
      <path
         id="path341"
         d="m 50.96875,34.6875 c 0.03906,0.0039 0.08984,0 0.125,0 0.34375,-0.02734 0.644531,-0.328125 0.644531,-1.160156 0,-0.621094 -0.195312,-0.984375 -0.625,-0.949219 -0.05078,0.0039 -0.09766,0.0078 -0.144531,0.02344 z m -0.710938,-2.457031 c 0.179688,-0.05078 0.441407,-0.09375 0.722657,-0.113281 0.464843,-0.03516 0.785156,0.03125 1.019531,0.191406 0.316406,0.210937 0.480469,0.597656 0.480469,1.183594 0,0.609374 -0.191407,1.058593 -0.511719,1.316406 -0.25,0.210937 -0.613281,0.339844 -1.117188,0.375 -0.230468,0.01953 -0.453124,0.01953 -0.59375,0.01172 v -2.964843"
         style="fill:#211e1e;fill-opacity:1;fill-rule:nonzero;stroke:none"
         inkscape:connector-curvature="0" />
    </g>
  </g>
</svg>
